<?xml version="1.0" encoding="UTF-8"?> <svg xmlns="http://www.w3.org/2000/svg" width="164" height="116" viewBox="0 0 164 116" fill="none"> <path d="M160.399 18.665C158.515 11.6589 152.991 6.13611 145.986 4.24959C133.188 0.748047 81.9977 0.748047 81.9977 0.748047C81.9977 0.748047 30.8091 0.748047 18.0117 4.11684C11.1414 6.00136 5.48279 11.6599 3.59826 18.665C0.230469 31.4614 0.230469 57.9995 0.230469 57.9995C0.230469 57.9995 0.230469 84.6713 3.59826 97.334C5.48478 104.339 11.0066 109.862 18.0127 111.748C30.9439 115.251 81.9997 115.251 81.9997 115.251C81.9997 115.251 133.188 115.251 145.986 111.882C152.992 109.997 158.515 104.474 160.401 97.4688C163.768 84.6714 163.768 58.1343 163.768 58.1343C163.768 58.1343 163.903 31.4614 160.399 18.665ZM65.6998 82.5163V33.4827L108.267 57.9995L65.6998 82.5163Z" fill="black"></path> </svg> 