<?xml version="1.0" encoding="UTF-8"?> <svg xmlns="http://www.w3.org/2000/svg" width="1482" height="201" viewBox="0 0 1482 201" fill="none"> <path fill-rule="evenodd" clip-rule="evenodd" d="M853.17 23.5179C839.317 39.1966 832.39 64.4914 832.39 99.4025C832.39 134.105 839.317 159.713 853.17 176.228C867.232 192.743 890.005 201 921.489 201C953.183 201 976.061 192.638 990.124 175.914C1004.4 159.19 1011.53 133.477 1011.53 98.7754C1011.53 63.8643 1004.61 38.674 990.753 23.2044C977.11 7.73479 954.232 0 922.119 0C890.215 0 867.232 7.83931 853.17 23.5179ZM922.119 53.9345C931.144 53.9345 937.021 56.6521 939.75 62.0874C942.479 67.3136 943.843 78.4977 943.843 95.6396V110.064C943.843 127.415 942.688 138.599 940.379 143.616C938.071 148.633 932.299 151.142 923.063 151.142C913.828 151.142 907.846 148.529 905.118 143.303C902.389 138.076 901.025 126.683 901.025 109.123V95.3261C901.025 78.1841 902.284 67 904.803 61.7738C907.322 56.5476 913.094 53.9345 922.119 53.9345ZM293.051 3.13569L252.77 197.864H177.838L161.782 118.844L147.929 197.864H72.9976L43.3773 66.0093L75.083 54.2501H42.8841H10.6852L0 3.21968L90.9612 3.13569L110 92.5039L133.132 3.13569H192.636L216.712 92.5039L233.547 3.13569H293.051ZM454.017 197.864H387.901L381.604 167.761H346.657L340.046 197.864H276.763L317.377 3.13569H413.403L454.017 197.864ZM376.882 127.31L364.288 62.0873L351.38 127.31H376.882ZM620.657 95.9532C624.855 88.4275 626.954 78.3931 626.954 65.8502C626.954 44.3182 621.182 28.5351 609.638 18.5008C598.094 8.25741 580.148 3.13572 555.801 3.13572L440.377 3.21971L451.062 54.2501H507.659L472.369 66V197.864H536.911V130.76H541.948L561.468 197.864H631.047L601.767 115.395C610.373 109.75 616.669 103.27 620.657 95.9532ZM553.597 88.4275C551.708 91.1451 548.35 92.5039 543.522 92.5039H535.651V54.5616H543.837C548.245 54.5616 551.498 55.9204 553.597 58.6381C555.696 61.3557 556.745 66.2683 556.745 73.376C556.745 80.4836 555.696 85.5008 553.597 88.4275ZM748.928 137.031H735.39V197.864H669.274V65.8502L705.605 54.2501H649.008L638.323 3.21971L745.465 3.13572C747.355 3.13572 749.207 3.16372 751.021 3.21971H752.414L752.427 3.269C774.686 4.14384 791.151 9.32563 801.821 18.8144C813.575 29.2668 819.452 46.5133 819.452 70.5538C819.452 94.5944 813.785 111.736 802.451 121.98C791.117 132.014 773.276 137.031 748.928 137.031ZM734.131 54.4454H748.57C749.93 55.2526 750.993 56.3366 751.762 57.6973C753.861 61.0421 754.91 66.6864 754.91 74.6303C754.91 82.5741 753.966 88.2184 752.077 91.5632C750.398 94.908 747.144 96.5803 742.317 96.5803H734.131V54.4454ZM1097.86 197.864H1031.43V3.13572H1097.86V56.1044H1046.97L1097.86 70.5538V197.864ZM1230.55 197.864H1300.62V66L1261.59 56.1044L1347.26 56.1295V197.864H1414.32V56.1295H1459.78L1481.11 3.13572H1234.32V82.4696L1195.28 3.13572H1123V197.864H1188.67V121.039L1230.55 197.864Z" fill="white"></path> </svg> 