<?xml version="1.0" encoding="UTF-8"?> <svg xmlns="http://www.w3.org/2000/svg" width="512" height="512" viewBox="0 0 512 512" fill="none"> <path d="M480.319 128.391C451.099 128.391 424.139 118.711 402.489 102.381C377.659 83.6606 359.819 56.2006 353.519 24.5506C351.959 16.7306 351.119 8.66063 351.039 0.390625H267.569V228.471L267.469 353.401C267.469 386.801 245.719 415.121 215.569 425.081C206.819 427.971 197.369 429.341 187.529 428.801C174.969 428.111 163.199 424.321 152.969 418.201C131.199 405.181 116.439 381.561 116.039 354.541C115.409 312.311 149.549 277.881 191.749 277.881C200.079 277.881 208.079 279.241 215.569 281.711V219.371V196.961C207.669 195.791 199.629 195.181 191.499 195.181C145.309 195.181 102.109 214.381 71.2292 248.971C47.8892 275.111 33.8892 308.461 31.7292 343.431C28.8992 389.371 45.7092 433.041 78.3092 465.261C83.0992 469.991 88.1292 474.381 93.3892 478.431C121.339 499.941 155.509 511.601 191.499 511.601C199.629 511.601 207.669 511.001 215.569 509.831C249.189 504.851 280.209 489.461 304.689 465.261C334.769 435.531 351.389 396.061 351.569 354.051L351.139 167.491C365.489 178.561 381.179 187.721 398.019 194.831C424.209 205.881 451.979 211.481 480.559 211.471V150.861V128.371C480.579 128.391 480.339 128.391 480.319 128.391V128.391Z" fill="white"></path> </svg> 