<?xml version="1.0" encoding="UTF-8"?> <!-- Generator: Adobe Illustrator 24.0.2, SVG Export Plug-In . SVG Version: 6.00 Build 0) --> <svg xmlns="http://www.w3.org/2000/svg" xmlns:xlink="http://www.w3.org/1999/xlink" id="Слой_1" x="0px" y="0px" viewBox="0 0 1080 1080" style="enable-background:new 0 0 1080 1080;" xml:space="preserve"> <style type="text/css"> .st0{enable-background:new ;} .st1{fill:#E0353F;} .st2{fill-rule:evenodd;clip-rule:evenodd;fill:#EFEFEF;} .st3{fill:#EFEFEF;} </style> <g id="_x31_2"> </g> <g id="Монтажная_область_1_1_" class="st0"> <g id="Эллипс_1"> <g> <g> <circle class="st1" cx="540" cy="540" r="524"></circle> </g> </g> </g> <path class="st2" d="M854.5,344.1v60.5h-24.7c19.3,41.1,30,87,30,135.4c0,176.6-143.2,319.8-319.8,319.8S220.2,716.6,220.2,540 S363.4,220.2,540,220.2c51.6,0,100.3,12.2,143.4,33.9v-22.3h62.2C686.8,192.4,616,169.5,540,169.5 c-204.6,0-370.5,165.9-370.5,370.5S335.4,910.5,540,910.5S910.5,744.6,910.5,540C910.5,468.1,890,400.9,854.5,344.1z"></path> <g> <polygon class="st3" points="829.5,179.6 785,179.6 785,256.7 708.4,256.7 708.4,301.3 785,301.3 785,379.6 829.5,379.6 829.5,301.3 906.1,301.3 906.1,256.7 829.5,256.7 "></polygon> </g> </g> <g id="Монтажная_область_2_1_" class="st0"> <g id="_x38_"> <g> <path class="st3" d="M545,736.5c-63.4,0-98.3-36.6-98.3-100.6v-31.4c0-38.3,11.4-68,38.9-83.4c-26.3-14.3-38.9-41.1-38.9-80.6 V428c0-64,34.9-100.6,98.3-100.6S643.3,364,643.3,428v12.6c0,39.4-13.1,66.3-38.9,80.6c27.4,15.4,38.9,45.1,38.9,83.4V636 C643.3,700,608.4,736.5,545,736.5z M509.6,452.6c0,32,14.9,42.3,35.4,42.3c20,0,35.4-10.3,35.4-42.3v-22.3 c0-36-15.4-45.7-35.4-45.7s-35.4,9.7-35.4,45.7V452.6z M545,679.4c20,0,34.9-9.7,35.4-45.1v-37.1c0-31.4-13.1-45.1-35.4-45.1 s-35.4,13.7-35.4,45.1v37.1C509.6,669.7,525,679.4,545,679.4z"></path> </g> </g> </g> </svg> 