<?xml version="1.0" encoding="UTF-8"?> <svg xmlns="http://www.w3.org/2000/svg" width="644" height="644" viewBox="0 0 644 644" fill="none"> <g clip-path="url(#clip0_9_22)"> <path d="M322 644C499.836 644 644 499.836 644 322C644 144.164 499.836 0 322 0C144.164 0 0 144.164 0 322C0 499.836 144.164 644 322 644Z" fill="#E0353F"></path> <path d="M199.765 494H444.049" stroke="white" stroke-width="13" stroke-linecap="round"></path> <path d="M322.308 492.799C146.103 333.814 170.131 150 322.308 150" stroke="white" stroke-width="13" stroke-linecap="round"></path> <path d="M319.14 492.799C495.345 333.814 471.317 150 319.14 150" stroke="white" stroke-width="13" stroke-linecap="round"></path> <path d="M296.277 325.992V339.364C296.277 344.924 291.769 349.432 286.208 349.432C272.306 349.432 261.036 338.162 261.036 324.26V284.69C261.036 267.382 271.358 251.252 288.334 247.877C309.495 243.671 332.709 243.592 355.267 248C372.709 251.409 383.579 267.843 383.579 285.614V320.542C383.579 336.498 370.644 349.432 354.688 349.432C348.306 349.432 343.132 344.258 343.132 337.876V325.992C343.132 319.917 338.207 314.992 332.132 314.992H307.277C301.202 314.992 296.277 319.917 296.277 325.992Z" stroke="white" stroke-width="13" stroke-linecap="round"></path> <path d="M321.506 244.911V208.068" stroke="white" stroke-width="13" stroke-linecap="round"></path> </g> <defs> <clipPath id="clip0_9_22"> <rect width="644" height="644" fill="white"></rect> </clipPath> </defs> </svg> 