<?xml version="1.0" encoding="UTF-8"?> <svg xmlns="http://www.w3.org/2000/svg" width="644" height="644" viewBox="0 0 644 644" fill="none"> <circle cx="322" cy="322" r="322" fill="#E0353F"></circle> <path d="M470.133 306.536C482.022 298.181 489.895 284.284 489.895 268.619C489.895 242.993 469.169 222.267 443.543 222.267C417.917 222.267 397.191 242.993 397.191 268.619C397.191 284.284 404.983 298.181 416.953 306.536C406.751 310.07 397.432 315.533 389.56 322.602C378.715 313.364 365.942 306.295 351.964 302.118C368.914 291.835 380.321 273.118 380.321 251.829C380.321 219.375 354.053 193.106 321.598 193.106C289.144 193.106 262.875 219.455 262.875 251.829C262.875 273.118 274.202 291.835 291.233 302.118C277.416 306.295 264.803 313.284 254.039 322.361C246.166 315.453 237.008 310.07 226.967 306.616C238.856 298.262 246.729 284.364 246.729 268.699C246.729 243.073 226.003 222.347 200.377 222.347C174.751 222.347 154.025 243.073 154.025 268.699C154.025 284.364 161.817 298.262 173.787 306.616C141.895 317.622 119 347.907 119 383.494V388.796C119 388.957 119.161 389.118 119.321 389.118H217.568C217.006 393.536 216.684 398.115 216.684 402.694V408.156C216.684 431.774 235.803 450.893 259.421 450.893H383.936C407.554 450.893 426.673 431.774 426.673 408.156V402.694C426.673 398.115 426.352 393.536 425.789 389.118H524.679C524.839 389.118 525 388.957 525 388.796V383.494C524.839 347.827 502.025 317.541 470.133 306.536ZM410.044 268.539C410.044 250.062 425.066 235.04 443.543 235.04C462.019 235.04 477.042 250.062 477.042 268.539C477.042 286.774 462.341 301.636 444.186 302.037C443.945 302.037 443.784 302.037 443.543 302.037C443.302 302.037 443.141 302.037 442.9 302.037C424.665 301.716 410.044 286.854 410.044 268.539ZM275.568 251.829C275.568 226.525 296.133 205.96 321.438 205.96C346.742 205.96 367.307 226.525 367.307 251.829C367.307 276.251 348.108 296.253 324.089 297.619C323.205 297.619 322.321 297.619 321.438 297.619C320.554 297.619 319.67 297.619 318.787 297.619C294.767 296.253 275.568 276.251 275.568 251.829ZM166.637 268.539C166.637 250.062 181.659 235.04 200.136 235.04C218.612 235.04 233.634 250.062 233.634 268.539C233.634 286.774 218.934 301.636 200.778 302.037C200.537 302.037 200.377 302.037 200.136 302.037C199.895 302.037 199.734 302.037 199.493 302.037C181.338 301.716 166.637 286.854 166.637 268.539ZM219.817 376.184H132.014C135.629 341.962 164.548 315.131 199.654 314.89C199.814 314.89 199.975 314.89 200.136 314.89C200.296 314.89 200.457 314.89 200.618 314.89C217.327 314.971 232.59 321.156 244.399 331.198C232.831 343.73 224.235 359.154 219.817 376.184ZM413.659 408.156C413.659 424.624 400.244 438.04 383.776 438.04H259.26C242.792 438.04 229.377 424.624 229.377 408.156V402.694C229.377 352.807 269.222 311.998 318.787 310.552C319.67 310.633 320.634 310.633 321.518 310.633C322.402 310.633 323.366 310.633 324.249 310.552C373.814 311.998 413.659 352.807 413.659 402.694V408.156V408.156ZM423.219 376.184C418.801 359.234 410.366 344.051 398.878 331.519C410.767 321.237 426.191 315.051 443.061 314.89C443.222 314.89 443.382 314.89 443.543 314.89C443.704 314.89 443.864 314.89 444.025 314.89C479.13 315.131 508.05 341.962 511.665 376.184H423.219Z" fill="white"></path> </svg> 