<?xml version="1.0" encoding="UTF-8"?> <svg xmlns="http://www.w3.org/2000/svg" width="644" height="644" viewBox="0 0 644 644" fill="none"> <circle cx="322" cy="322" r="322" fill="#E0353F"></circle> <path d="M469.802 274.698L457.264 257.323C450.18 247.533 440.878 239.561 430.12 234.057C419.362 228.554 407.454 225.677 395.37 225.661H248.631C236.546 225.677 224.636 228.556 213.878 234.06C203.119 239.565 193.817 247.539 186.733 257.331L174.201 274.696C166.906 279.719 160.94 286.44 156.816 294.28C152.693 302.12 150.536 310.844 150.531 319.702V360.622C150.549 376.083 156.698 390.905 167.631 401.838C178.563 412.771 193.386 418.92 208.847 418.938H225.781C241.299 418.963 256.578 415.111 270.229 407.731C283.88 400.351 295.471 389.677 303.948 376.678L308.865 369.167C310.312 367.066 312.262 365.36 314.537 364.204C316.812 363.048 319.34 362.48 321.891 362.55C321.964 362.553 322.037 362.553 322.109 362.55C324.659 362.488 327.184 363.061 329.457 364.216C331.731 365.371 333.682 367.072 335.136 369.167L340.052 376.678C348.529 389.676 360.12 400.351 373.771 407.731C387.422 415.111 402.701 418.963 418.219 418.938H435.153C450.614 418.92 465.437 412.771 476.369 401.838C487.302 390.906 493.451 376.083 493.469 360.622V319.702C493.464 310.845 491.307 302.121 487.185 294.282C483.062 286.443 477.097 279.722 469.802 274.698V274.698ZM195.704 263.805C201.761 255.432 209.715 248.613 218.914 243.906C228.114 239.199 238.297 236.738 248.631 236.724H395.37C405.703 236.737 415.885 239.198 425.084 243.903C434.283 248.609 442.236 255.426 448.294 263.797L449.995 266.154C446.296 265.375 442.526 264.981 438.746 264.979H205.254C201.475 264.981 197.707 265.374 194.01 266.153L195.704 263.805ZM482.406 360.622C482.392 373.15 477.409 385.161 468.551 394.019C459.692 402.878 447.681 407.861 435.153 407.875H418.219C404.538 407.898 391.068 404.502 379.034 397.996C366.999 391.49 356.781 382.079 349.308 370.62L344.391 363.109C341.969 359.512 338.696 356.569 334.863 354.541C331.03 352.513 326.755 351.463 322.419 351.485C322.279 351.485 322.139 351.486 322 351.488C317.597 351.418 313.246 352.444 309.338 354.472C305.429 356.501 302.086 359.469 299.609 363.109L294.692 370.62C287.219 382.079 277.001 391.49 264.966 397.996C252.932 404.502 239.462 407.898 225.781 407.875H208.847C196.319 407.861 184.308 402.878 175.449 394.019C166.591 385.161 161.608 373.15 161.594 360.622V319.702C161.607 308.127 166.211 297.029 174.396 288.844C182.581 280.659 193.678 276.055 205.254 276.042H438.746C450.322 276.055 461.419 280.659 469.604 288.844C477.789 297.029 482.393 308.127 482.406 319.702V360.622Z" fill="white"></path> <path d="M410.364 311.743C409.03 311.131 407.509 311.073 406.133 311.582C404.757 312.091 403.64 313.126 403.027 314.458L392.463 337.437L381.9 314.459C381.287 313.126 380.17 312.091 378.794 311.581C377.418 311.072 375.896 311.13 374.563 311.743C373.23 312.356 372.195 313.473 371.686 314.849C371.176 316.225 371.235 317.747 371.847 319.08L387.436 352.99C387.879 353.951 388.587 354.765 389.478 355.336C390.369 355.907 391.405 356.21 392.463 356.21C393.521 356.21 394.557 355.907 395.447 355.336C396.338 354.765 397.047 353.951 397.489 352.99L413.079 319.08C413.692 317.747 413.749 316.225 413.24 314.849C412.731 313.473 411.696 312.356 410.364 311.743V311.743Z" fill="white"></path> <path d="M454.221 326.748C454.216 322.636 452.581 318.694 449.673 315.786C446.766 312.878 442.824 311.242 438.712 311.237H427.287C425.82 311.237 424.413 311.82 423.376 312.857C422.339 313.895 421.756 315.302 421.756 316.769V350.679C421.756 352.145 422.339 353.552 423.376 354.59C424.413 355.627 425.82 356.21 427.287 356.21C428.754 356.21 430.161 355.627 431.198 354.59C432.236 353.552 432.818 352.145 432.818 350.679V342.257H436.647L444.047 353.685C444.844 354.916 446.098 355.78 447.532 356.087C448.967 356.394 450.464 356.118 451.696 355.321C452.927 354.524 453.791 353.27 454.098 351.836C454.405 350.401 454.13 348.904 453.332 347.673L447.879 339.251C449.845 337.812 451.443 335.93 452.545 333.758C453.646 331.585 454.221 329.184 454.221 326.748V326.748ZM438.712 331.195H432.818V322.3H438.712C439.889 322.303 441.018 322.773 441.849 323.606C442.681 324.44 443.148 325.57 443.148 326.747C443.148 327.925 442.681 329.055 441.849 329.888C441.018 330.722 439.889 331.192 438.712 331.195Z" fill="white"></path> </svg> 